<mxfile host="Electron" agent="Mozilla/5.0 (Windows NT 10.0; Win64; x64) AppleWebKit/537.36 (KHTML, like Gecko) draw.io/28.0.6 Chrome/138.0.7204.100 Electron/37.2.3 Safari/537.36" version="28.0.6">
  <diagram name="Page-1" id="xYALmZzYSGGyCjKN-bjb">
    <mxGraphModel dx="1426" dy="841" grid="1" gridSize="10" guides="1" tooltips="1" connect="1" arrows="1" fold="1" page="1" pageScale="1" pageWidth="850" pageHeight="1100" math="0" shadow="0">
      <root>
        <mxCell id="0" />
        <mxCell id="1" parent="0" />
        <mxCell id="nvavKSz-HhjrbYaD9B97-3" value="Internet" style="verticalLabelPosition=middle;aspect=fixed;html=1;verticalAlign=middle;align=center;outlineConnect=0;shape=mxgraph.citrix.cloud;shadow=0;fontFamily=Lucida Console;labelPosition=center;fontSize=30;labelBackgroundColor=none;labelBorderColor=none;textShadow=0;fontColor=#000000;" vertex="1" parent="1">
          <mxGeometry x="232.53" y="208" width="186.94" height="122" as="geometry" />
        </mxCell>
        <mxCell id="nvavKSz-HhjrbYaD9B97-7" style="edgeStyle=orthogonalEdgeStyle;rounded=0;orthogonalLoop=1;jettySize=auto;html=1;curved=1;endArrow=none;endFill=0;" edge="1" parent="1" source="nvavKSz-HhjrbYaD9B97-6" target="nvavKSz-HhjrbYaD9B97-3">
          <mxGeometry relative="1" as="geometry" />
        </mxCell>
        <mxCell id="nvavKSz-HhjrbYaD9B97-6" value="Etätyöasema" style="verticalLabelPosition=top;sketch=0;aspect=fixed;html=1;verticalAlign=bottom;strokeColor=none;align=center;outlineConnect=0;shape=mxgraph.citrix.desktop;fontSize=20;labelPosition=center;fontFamily=Lucida Console;" vertex="1" parent="1">
          <mxGeometry x="600" y="110" width="89" height="98" as="geometry" />
        </mxCell>
        <mxCell id="nvavKSz-HhjrbYaD9B97-31" style="edgeStyle=orthogonalEdgeStyle;shape=connector;curved=1;rounded=0;orthogonalLoop=1;jettySize=auto;html=1;strokeColor=default;align=center;verticalAlign=middle;fontFamily=Helvetica;fontSize=11;fontColor=default;labelBackgroundColor=default;endArrow=none;endFill=0;" edge="1" parent="1" source="nvavKSz-HhjrbYaD9B97-8" target="nvavKSz-HhjrbYaD9B97-3">
          <mxGeometry relative="1" as="geometry" />
        </mxCell>
        <mxCell id="nvavKSz-HhjrbYaD9B97-8" value="Reititin" style="verticalLabelPosition=bottom;sketch=0;aspect=fixed;html=1;verticalAlign=top;strokeColor=none;align=center;outlineConnect=0;shape=mxgraph.citrix.router;fontFamily=Lucida Console;fontSize=16;" vertex="1" parent="1">
          <mxGeometry x="580" y="333.5" width="55" height="36.5" as="geometry" />
        </mxCell>
        <mxCell id="nvavKSz-HhjrbYaD9B97-30" style="edgeStyle=orthogonalEdgeStyle;shape=connector;curved=1;rounded=0;orthogonalLoop=1;jettySize=auto;html=1;strokeColor=default;align=center;verticalAlign=middle;fontFamily=Helvetica;fontSize=11;fontColor=default;labelBackgroundColor=default;endArrow=none;endFill=0;" edge="1" parent="1" source="nvavKSz-HhjrbYaD9B97-9" target="nvavKSz-HhjrbYaD9B97-8">
          <mxGeometry relative="1" as="geometry" />
        </mxCell>
        <mxCell id="nvavKSz-HhjrbYaD9B97-9" value="Palomuuri" style="verticalLabelPosition=bottom;sketch=0;aspect=fixed;html=1;verticalAlign=top;strokeColor=none;align=center;outlineConnect=0;shape=mxgraph.citrix.firewall;fontFamily=Lucida Console;fontSize=16;" vertex="1" parent="1">
          <mxGeometry x="450" y="381.75" width="75" height="93" as="geometry" />
        </mxCell>
        <mxCell id="nvavKSz-HhjrbYaD9B97-28" style="edgeStyle=orthogonalEdgeStyle;shape=connector;curved=1;rounded=0;orthogonalLoop=1;jettySize=auto;html=1;strokeColor=default;align=center;verticalAlign=middle;fontFamily=Helvetica;fontSize=11;fontColor=default;labelBackgroundColor=default;endArrow=none;endFill=0;" edge="1" parent="1" source="nvavKSz-HhjrbYaD9B97-10" target="nvavKSz-HhjrbYaD9B97-21">
          <mxGeometry relative="1" as="geometry" />
        </mxCell>
        <mxCell id="nvavKSz-HhjrbYaD9B97-29" style="edgeStyle=orthogonalEdgeStyle;shape=connector;curved=1;rounded=0;orthogonalLoop=1;jettySize=auto;html=1;strokeColor=default;align=center;verticalAlign=middle;fontFamily=Helvetica;fontSize=11;fontColor=default;labelBackgroundColor=default;endArrow=none;endFill=0;" edge="1" parent="1" source="nvavKSz-HhjrbYaD9B97-10" target="nvavKSz-HhjrbYaD9B97-9">
          <mxGeometry relative="1" as="geometry" />
        </mxCell>
        <mxCell id="nvavKSz-HhjrbYaD9B97-10" value="Lähiverkko&lt;div&gt;192.168.196.0/24&lt;/div&gt;" style="verticalLabelPosition=bottom;sketch=0;aspect=fixed;html=1;verticalAlign=top;strokeColor=none;align=center;outlineConnect=0;shape=mxgraph.citrix.switch;fontSize=16;fontFamily=Lucida Console;" vertex="1" parent="1">
          <mxGeometry x="280" y="490" width="92" height="41.5" as="geometry" />
        </mxCell>
        <mxCell id="nvavKSz-HhjrbYaD9B97-25" style="edgeStyle=orthogonalEdgeStyle;shape=connector;curved=1;rounded=0;orthogonalLoop=1;jettySize=auto;html=1;strokeColor=default;align=center;verticalAlign=middle;fontFamily=Helvetica;fontSize=11;fontColor=default;labelBackgroundColor=default;endArrow=none;endFill=0;" edge="1" parent="1" source="nvavKSz-HhjrbYaD9B97-11" target="nvavKSz-HhjrbYaD9B97-10">
          <mxGeometry relative="1" as="geometry" />
        </mxCell>
        <mxCell id="nvavKSz-HhjrbYaD9B97-11" value="" style="verticalLabelPosition=bottom;sketch=0;aspect=fixed;html=1;verticalAlign=top;strokeColor=none;align=center;outlineConnect=0;shape=mxgraph.citrix.desktop;" vertex="1" parent="1">
          <mxGeometry x="70" y="590" width="89" height="98" as="geometry" />
        </mxCell>
        <mxCell id="nvavKSz-HhjrbYaD9B97-32" style="edgeStyle=orthogonalEdgeStyle;shape=connector;curved=1;rounded=0;orthogonalLoop=1;jettySize=auto;html=1;strokeColor=default;align=center;verticalAlign=middle;fontFamily=Helvetica;fontSize=11;fontColor=default;labelBackgroundColor=default;endArrow=none;endFill=0;" edge="1" parent="1" source="nvavKSz-HhjrbYaD9B97-13" target="nvavKSz-HhjrbYaD9B97-10">
          <mxGeometry relative="1" as="geometry" />
        </mxCell>
        <mxCell id="nvavKSz-HhjrbYaD9B97-13" value="" style="verticalLabelPosition=bottom;sketch=0;aspect=fixed;html=1;verticalAlign=top;strokeColor=none;align=center;outlineConnect=0;shape=mxgraph.citrix.desktop;" vertex="1" parent="1">
          <mxGeometry x="70" y="820" width="89" height="98" as="geometry" />
        </mxCell>
        <mxCell id="nvavKSz-HhjrbYaD9B97-20" value="" style="verticalLabelPosition=bottom;sketch=0;aspect=fixed;html=1;verticalAlign=top;strokeColor=none;align=center;outlineConnect=0;shape=mxgraph.citrix.tablet_2;" vertex="1" parent="1">
          <mxGeometry x="689" y="464" width="82" height="86" as="geometry" />
        </mxCell>
        <mxCell id="nvavKSz-HhjrbYaD9B97-21" value="Langattoman verkon&lt;div&gt;tukiasema&lt;/div&gt;" style="image;html=1;image=img/lib/clip_art/networking/Wireless_Router_N_128x128.png;labelBackgroundColor=none;fontSize=16;fontFamily=Lucida Console;" vertex="1" parent="1">
          <mxGeometry x="70" y="370" width="80" height="80" as="geometry" />
        </mxCell>
        <mxCell id="nvavKSz-HhjrbYaD9B97-23" value="" style="group" vertex="1" connectable="0" parent="1">
          <mxGeometry x="372" y="650" width="426.5" height="290" as="geometry" />
        </mxCell>
        <mxCell id="nvavKSz-HhjrbYaD9B97-15" value="Debian 13" style="rounded=0;html=1;labelPosition=center;verticalLabelPosition=top;align=center;verticalAlign=bottom;fontSize=20;fontFamily=Lucida Console;whiteSpace=wrap;" vertex="1" parent="nvavKSz-HhjrbYaD9B97-23">
          <mxGeometry width="426.5" height="290" as="geometry" />
        </mxCell>
        <mxCell id="nvavKSz-HhjrbYaD9B97-17" value="PostreSQL 13" style="verticalLabelPosition=bottom;sketch=0;aspect=fixed;html=1;verticalAlign=top;strokeColor=none;align=center;outlineConnect=0;shape=mxgraph.citrix.database_server;fontSize=16;fontFamily=Lucida Console;" vertex="1" parent="nvavKSz-HhjrbYaD9B97-23">
          <mxGeometry x="310" y="20" width="80" height="90" as="geometry" />
        </mxCell>
        <mxCell id="nvavKSz-HhjrbYaD9B97-18" value="NGINX" style="verticalLabelPosition=bottom;sketch=0;aspect=fixed;html=1;verticalAlign=top;strokeColor=none;align=center;outlineConnect=0;shape=mxgraph.citrix.web_server;fontSize=16;fontFamily=Lucida Console;" vertex="1" parent="nvavKSz-HhjrbYaD9B97-23">
          <mxGeometry x="193.44" y="30" width="76.5" height="90" as="geometry" />
        </mxCell>
        <mxCell id="nvavKSz-HhjrbYaD9B97-19" value="Django" style="verticalLabelPosition=bottom;sketch=0;aspect=fixed;html=1;verticalAlign=top;strokeColor=none;align=center;outlineConnect=0;shape=mxgraph.citrix.web_service;fontFamily=Lucida Console;fontSize=16;" vertex="1" parent="nvavKSz-HhjrbYaD9B97-23">
          <mxGeometry x="206.94" y="165" width="63" height="60" as="geometry" />
        </mxCell>
        <mxCell id="nvavKSz-HhjrbYaD9B97-22" value="Gunicorn" style="verticalLabelPosition=bottom;sketch=0;aspect=fixed;html=1;verticalAlign=top;strokeColor=none;align=center;outlineConnect=0;shape=mxgraph.citrix.web_server;fontSize=16;fontFamily=Lucida Console;" vertex="1" parent="nvavKSz-HhjrbYaD9B97-23">
          <mxGeometry x="56.5" y="30" width="76.5" height="90" as="geometry" />
        </mxCell>
        <mxCell id="nvavKSz-HhjrbYaD9B97-27" style="edgeStyle=orthogonalEdgeStyle;shape=connector;curved=1;rounded=0;orthogonalLoop=1;jettySize=auto;html=1;entryX=0.25;entryY=0;entryDx=0;entryDy=0;strokeColor=default;align=center;verticalAlign=middle;fontFamily=Helvetica;fontSize=11;fontColor=default;labelBackgroundColor=default;endArrow=none;endFill=0;" edge="1" parent="1" source="nvavKSz-HhjrbYaD9B97-10" target="nvavKSz-HhjrbYaD9B97-15">
          <mxGeometry relative="1" as="geometry">
            <Array as="points">
              <mxPoint x="390" y="511" />
              <mxPoint x="390" y="601" />
              <mxPoint x="450" y="601" />
              <mxPoint x="450" y="640" />
              <mxPoint x="479" y="640" />
            </Array>
          </mxGeometry>
        </mxCell>
      </root>
    </mxGraphModel>
  </diagram>
</mxfile>
